<svg version="1.1" id="Layer_1" xmlns="http://www.w3.org/2000/svg" xmlns:xlink="http://www.w3.org/1999/xlink" x="0px" y="0px"
	 width="100%" viewBox="0 0 2560 2560" enable-background="new 0 0 2560 2560" xml:space="preserve">
<path fill="#6A2944" opacity="1.000000" stroke="none" 
	d="
M1488.000000,2562.000000 
	C992.000000,2562.000000 497.000000,2562.000000 2.000000,2562.000000 
	C2.000000,1708.666626 2.000000,855.333313 2.000000,2.000000 
	C855.333313,2.000000 1708.666626,2.000000 2562.000000,2.000000 
	C2562.000000,855.333313 2562.000000,1708.666626 2562.000000,2562.000000 
	C2204.333252,2562.000000 1846.666626,2562.000000 1488.000000,2562.000000 
M1622.261108,2192.860107 
	C1768.696533,2137.739258 1894.873535,2052.581543 2000.545288,1937.205322 
	C2089.270020,1840.332275 2155.359375,1729.766724 2199.335449,1606.019043 
	C2227.717285,1526.153320 2245.006592,1443.855957 2251.568115,1359.384766 
	C2255.133301,1313.487427 2255.315186,1267.521729 2252.523682,1221.518799 
	C2249.123779,1165.491821 2241.095947,1110.184204 2227.869141,1055.672485 
	C2186.714355,886.063538 2105.798096,737.983337 1985.524048,611.639160 
	C1904.980591,527.030640 1811.869629,459.289124 1706.713013,408.286591 
	C1587.591553,350.510834 1461.737793,318.784912 1329.600830,312.513702 
	C1267.237915,309.553986 1205.055542,312.473480 1143.149902,321.540863 
	C1067.287842,332.652527 993.697876,352.064972 922.648315,380.710022 
	C795.729065,431.879974 684.259705,506.306030 588.634705,604.334534 
	C493.997589,701.350281 422.675781,813.233826 374.653931,939.934937 
	C334.696259,1045.359497 314.448761,1154.599976 312.497772,1267.234985 
	C311.479675,1326.014893 316.107452,1384.392822 325.639191,1442.444946 
	C338.228577,1519.119019 359.811523,1593.140503 390.468597,1664.447388 
	C449.360138,1801.425171 535.366211,1918.768677 647.829834,2016.600708 
	C726.683228,2085.195312 814.589783,2139.393799 911.076477,2179.528320 
	C999.350586,2216.246582 1091.106567,2239.150879 1186.297241,2248.653076 
	C1266.662476,2256.675537 1346.744141,2254.691406 1426.569946,2243.116211 
	C1493.046631,2233.476318 1557.768799,2216.628174 1622.261108,2192.860107 
z"/>
<path fill="#DDADBE" opacity="1.000000" stroke="none" 
	d="
M1621.548828,2193.167725 
	C1557.768799,2216.628174 1493.046631,2233.476318 1426.569946,2243.116211 
	C1346.744141,2254.691406 1266.662476,2256.675537 1186.297241,2248.653076 
	C1091.106567,2239.150879 999.350586,2216.246582 911.076477,2179.528320 
	C814.589783,2139.393799 726.683228,2085.195312 647.829834,2016.600708 
	C535.366211,1918.768677 449.360138,1801.425171 390.468597,1664.447388 
	C359.811523,1593.140503 338.228577,1519.119019 325.639191,1442.444946 
	C316.107452,1384.392822 311.479675,1326.014893 312.497772,1267.234985 
	C314.448761,1154.599976 334.696259,1045.359497 374.653931,939.934937 
	C422.675781,813.233826 493.997589,701.350281 588.634705,604.334534 
	C684.259705,506.306030 795.729065,431.879974 922.648315,380.710022 
	C993.697876,352.064972 1067.287842,332.652527 1143.149902,321.540863 
	C1205.055542,312.473480 1267.237915,309.553986 1329.600830,312.513702 
	C1461.737793,318.784912 1587.591553,350.510834 1706.713013,408.286591 
	C1811.869629,459.289124 1904.980591,527.030640 1985.524048,611.639160 
	C2105.798096,737.983337 2186.714355,886.063538 2227.869141,1055.672485 
	C2241.095947,1110.184204 2249.123779,1165.491821 2252.523682,1221.518799 
	C2255.315186,1267.521729 2255.133301,1313.487427 2251.568115,1359.384766 
	C2245.006592,1443.855957 2227.717285,1526.153320 2199.335449,1606.019043 
	C2155.359375,1729.766724 2089.270020,1840.332275 2000.545288,1937.205322 
	C1894.873535,2052.581543 1768.696533,2137.739258 1621.548828,2193.167725 
M2049.289062,721.836609 
	C1955.511841,595.205811 1838.154297,496.773315 1696.463013,427.706451 
	C1582.685669,372.246216 1462.288086,341.525909 1336.030273,334.506927 
	C1257.882446,330.162506 1180.201416,335.257050 1103.242310,350.287048 
	C1006.683289,369.144897 914.937683,401.476715 828.905151,449.185791 
	C659.613281,543.065918 529.625977,675.722534 439.882294,847.331543 
	C379.932129,961.968933 346.212738,1084.306274 336.534515,1213.137817 
	C330.212677,1297.290283 335.415375,1380.900879 351.596252,1463.848267 
	C380.925079,1614.195557 443.186707,1749.473511 537.907776,1869.575439 
	C622.018066,1976.223633 724.386780,2061.327393 844.916870,2124.307373 
	C960.777466,2184.847656 1083.977295,2219.766602 1214.273438,2229.475098 
	C1264.533203,2233.219727 1314.800659,2232.643799 1365.072998,2228.360107 
	C1425.695557,2223.194336 1485.317383,2212.659180 1543.683960,2195.674316 
	C1725.843262,2142.666260 1879.009277,2044.144775 2003.258667,1900.870239 
	C2067.499756,1826.792236 2118.573242,1744.338135 2157.073730,1654.161621 
	C2197.172363,1560.240845 2221.559814,1462.365479 2229.704102,1360.548828 
	C2234.230713,1303.959717 2233.786865,1247.392578 2228.402100,1190.818604 
	C2222.764648,1131.587036 2211.662354,1073.459595 2194.916504,1016.418396 
	C2163.735840,910.206482 2115.436523,812.399414 2049.289062,721.836609 
z"/>
<path fill="#6A2944" opacity="1.000000" stroke="none" 
	d="
M2049.695068,722.429993 
	C2115.436523,812.399414 2163.735840,910.206482 2194.916504,1016.418396 
	C2211.662354,1073.459595 2222.764648,1131.587036 2228.402100,1190.818604 
	C2233.786865,1247.392578 2234.230713,1303.959717 2229.704102,1360.548828 
	C2221.559814,1462.365479 2197.172363,1560.240845 2157.073730,1654.161621 
	C2118.573242,1744.338135 2067.499756,1826.792236 2003.258667,1900.870239 
	C1879.009277,2044.144775 1725.843262,2142.666260 1543.683960,2195.674316 
	C1485.317383,2212.659180 1425.695557,2223.194336 1365.072998,2228.360107 
	C1314.800659,2232.643799 1264.533203,2233.219727 1214.273438,2229.475098 
	C1083.977295,2219.766602 960.777466,2184.847656 844.916870,2124.307373 
	C724.386780,2061.327393 622.018066,1976.223633 537.907776,1869.575439 
	C443.186707,1749.473511 380.925079,1614.195557 351.596252,1463.848267 
	C335.415375,1380.900879 330.212677,1297.290283 336.534515,1213.137817 
	C346.212738,1084.306274 379.932129,961.968933 439.882294,847.331543 
	C529.625977,675.722534 659.613281,543.065918 828.905151,449.185791 
	C914.937683,401.476715 1006.683289,369.144897 1103.242310,350.287048 
	C1180.201416,335.257050 1257.882446,330.162506 1336.030273,334.506927 
	C1462.288086,341.525909 1582.685669,372.246216 1696.463013,427.706451 
	C1838.154297,496.773315 1955.511841,595.205811 2049.695068,722.429993 
M1485.412476,1297.190918 
	C1477.885010,1236.745728 1489.399048,1180.287598 1522.400635,1128.955566 
	C1542.832886,1097.174316 1570.491455,1072.977417 1605.255005,1057.446533 
	C1639.101562,1042.325195 1674.561890,1038.720703 1710.892700,1044.118286 
	C1766.350464,1052.357300 1808.960815,1080.091919 1836.956299,1129.244751 
	C1838.246338,1131.509766 1839.719360,1133.670898 1841.646118,1136.738647 
	C1855.454224,1128.146362 1868.845703,1119.813232 1882.504639,1111.313721 
	C1858.589478,1062.015137 1821.693115,1028.414673 1772.086792,1009.282654 
	C1735.415405,995.139282 1697.077393,991.939270 1657.991455,995.642944 
	C1591.827515,1001.912415 1537.395996,1031.420288 1495.243530,1081.635864 
	C1444.623169,1141.939209 1423.543945,1212.724976 1432.026123,1291.038330 
	C1440.876465,1372.749756 1477.568604,1440.018677 1542.852173,1490.684570 
	C1579.017456,1518.751831 1620.035889,1535.295288 1666.067627,1537.723633 
	C1714.462891,1540.276978 1760.096802,1529.746948 1802.697754,1506.676636 
	C1831.148315,1491.269531 1856.138550,1471.550049 1875.357300,1445.199463 
	C1882.374512,1435.578125 1888.877441,1425.567017 1892.317871,1413.163452 
	C1884.941772,1409.309448 1877.920532,1405.580200 1870.843628,1401.959961 
	C1863.851074,1398.382935 1856.802002,1394.915894 1849.688843,1391.355957 
	C1848.303711,1393.370605 1847.432373,1394.382568 1846.839600,1395.537354 
	C1828.594849,1431.075317 1800.243530,1456.085205 1764.505615,1472.683960 
	C1720.049561,1493.332031 1673.970947,1496.533691 1627.240601,1481.404419 
	C1595.196777,1471.030029 1568.222290,1452.348145 1545.671509,1427.349609 
	C1512.586914,1390.674194 1492.757812,1347.780273 1485.412476,1297.190918 
M735.430237,1366.999634 
	C735.430237,1397.319824 735.401978,1427.639893 735.438232,1457.960083 
	C735.474731,1488.477905 735.270264,1519.000732 735.572937,1549.260498 
	C748.045959,1551.365601 1089.486938,1550.945435 1098.003296,1548.824585 
	C1098.100708,1534.281860 1098.354004,1519.525146 1097.855347,1503.633057 
	C994.061829,1503.633057 891.634216,1503.633057 788.063354,1503.633057 
	C788.063354,1340.066895 788.063354,1177.661133 788.063354,1014.746582 
	C770.133240,1014.746582 753.361084,1014.746582 735.430237,1014.746582 
	C735.430237,1131.943970 735.430237,1248.471802 735.430237,1366.999634 
M1304.838501,1611.000977 
	C1304.838501,1275.378784 1304.838745,939.756592 1304.838257,604.134399 
	C1304.838257,600.801514 1304.997070,597.457275 1304.771118,594.139465 
	C1304.601318,591.648376 1303.932251,589.191345 1303.502686,586.813965 
	C1297.116943,586.813965 1291.558472,586.813965 1286.139648,586.813965 
	C1283.714355,596.469299 1283.953125,1969.712524 1286.291992,1977.426514 
	C1292.098633,1977.426514 1297.940186,1977.426514 1304.838379,1977.426514 
	C1304.838379,1855.527222 1304.838379,1734.264160 1304.838501,1611.000977 
z"/>
<path fill="#DFAFC0" opacity="1.000000" stroke="none" 
	d="
M1485.532837,1298.070312 
	C1492.757812,1347.780273 1512.586914,1390.674194 1545.671509,1427.349609 
	C1568.222290,1452.348145 1595.196777,1471.030029 1627.240601,1481.404419 
	C1673.970947,1496.533691 1720.049561,1493.332031 1764.505615,1472.683960 
	C1800.243530,1456.085205 1828.594849,1431.075317 1846.839600,1395.537354 
	C1847.432373,1394.382568 1848.303711,1393.370605 1849.688843,1391.355957 
	C1856.802002,1394.915894 1863.851074,1398.382935 1870.843628,1401.959961 
	C1877.920532,1405.580200 1884.941772,1409.309448 1892.317871,1413.163452 
	C1888.877441,1425.567017 1882.374512,1435.578125 1875.357300,1445.199463 
	C1856.138550,1471.550049 1831.148315,1491.269531 1802.697754,1506.676636 
	C1760.096802,1529.746948 1714.462891,1540.276978 1666.067627,1537.723633 
	C1620.035889,1535.295288 1579.017456,1518.751831 1542.852173,1490.684570 
	C1477.568604,1440.018677 1440.876465,1372.749756 1432.026123,1291.038330 
	C1423.543945,1212.724976 1444.623169,1141.939209 1495.243530,1081.635864 
	C1537.395996,1031.420288 1591.827515,1001.912415 1657.991455,995.642944 
	C1697.077393,991.939270 1735.415405,995.139282 1772.086792,1009.282654 
	C1821.693115,1028.414673 1858.589478,1062.015137 1882.504639,1111.313721 
	C1868.845703,1119.813232 1855.454224,1128.146362 1841.646118,1136.738647 
	C1839.719360,1133.670898 1838.246338,1131.509766 1836.956299,1129.244751 
	C1808.960815,1080.091919 1766.350464,1052.357300 1710.892700,1044.118286 
	C1674.561890,1038.720703 1639.101562,1042.325195 1605.255005,1057.446533 
	C1570.491455,1072.977417 1542.832886,1097.174316 1522.400635,1128.955566 
	C1489.399048,1180.287598 1477.885010,1236.745728 1485.532837,1298.070312 
z"/>
<path fill="#E0B0C1" opacity="1.000000" stroke="none" 
	d="
M735.430237,1365.999512 
	C735.430237,1248.471802 735.430237,1131.943970 735.430237,1014.746582 
	C753.361084,1014.746582 770.133240,1014.746582 788.063354,1014.746582 
	C788.063354,1177.661133 788.063354,1340.066895 788.063354,1503.633057 
	C891.634216,1503.633057 994.061829,1503.633057 1097.855347,1503.633057 
	C1098.354004,1519.525146 1098.100708,1534.281860 1098.003296,1548.824585 
	C1089.486938,1550.945435 748.045959,1551.365601 735.572937,1549.260498 
	C735.270264,1519.000732 735.474731,1488.477905 735.438232,1457.960083 
	C735.401978,1427.639893 735.430237,1397.319824 735.430237,1365.999512 
z"/>
<path fill="#DDACBD" opacity="1.000000" stroke="none" 
	d="
M1304.838379,1612.000977 
	C1304.838379,1734.264160 1304.838379,1855.527222 1304.838379,1977.426514 
	C1297.940186,1977.426514 1292.098633,1977.426514 1286.291992,1977.426514 
	C1283.953125,1969.712524 1283.714355,596.469299 1286.139648,586.813965 
	C1291.558472,586.813965 1297.116943,586.813965 1303.502686,586.813965 
	C1303.932251,589.191345 1304.601318,591.648376 1304.771118,594.139465 
	C1304.997070,597.457275 1304.838257,600.801514 1304.838257,604.134399 
	C1304.838745,939.756592 1304.838501,1275.378784 1304.838379,1612.000977 
z"/>
</svg>